# xmcd
# Copyright (C) 1995-1998 Ti Kan
#
# Track frame offsets:
#       150
#       24462
#       45844
#       65323
#       85610
#       100824
#       119889
#       134005
#       155392
#       175371
#
# Disc length: 2510 seconds
#
# Revision: 0
# Processed by: cddbd v1.4PL0 Copyright (c) Steve Scherf et al.
# Submitted via: CD-Transfer v1.0
#
DISCID=7e09cc0a
DTITLE=Green Onions - Green Onions
DYEAR=2001
DGENRE=
TTITLE0=Sledgehammer
TTITLE1=I Still Haven't Found What I'm Looking For
TTITLE2=Aroma Funky
TTITLE3=Somebody To Love
TTITLE4=Take Me To The River
TTITLE5=Tu Vuo' Fa' L'americano
TTITLE6=Do Right Woman, Do Right Man
TTITLE7=Viento 'e Terra
TTITLE8=You Can't Get What You Want
TTITLE9=Jump, Jive, An' Wail
EXTD=
EXTT0=
EXTT1=
EXTT2=
EXTT3=
EXTT4=
EXTT5=
EXTT6=
EXTT7=
EXTT8=
EXTT9=
PLAYORDER=
